<svg width="17" height="21" viewBox="0 0 17 21" fill="none" xmlns="http://www.w3.org/2000/svg">
<path d="M0.641357 20.6717L5.68126 12.5899C4.19016 12.1426 3.08677 11.4269 2.34122 10.4428C1.59568 9.42884 1.23779 8.23597 1.23779 6.86416C1.23779 5.64146 1.53602 4.56787 2.10264 3.61357C2.66925 2.68909 3.53408 1.94353 4.63749 1.40674C5.77072 0.869945 7.17235 0.601562 8.81255 0.601562H16.3873V20.6419H12.9578V13.0075H8.75292L4.30946 20.6717H0.641357ZM4.66731 6.86416C4.66731 7.90793 5.02517 8.68329 5.71107 9.27972C6.4268 9.84634 7.6495 10.1446 9.40899 10.1446H12.9876V3.61357H9.40899C7.6495 3.61357 6.4268 3.91179 5.71107 4.47841C4.99535 5.04502 4.66731 5.85021 4.66731 6.86416Z" fill="white"/>
</svg>
