<svg width="7" height="20" viewBox="0 0 7 20" fill="none" xmlns="http://www.w3.org/2000/svg">
<path fill-rule="evenodd" clip-rule="evenodd" d="M6.514 1.235C6.666 1.602 6.666 2.068 6.666 3V17C6.666 17.932 6.666 18.398 6.514 18.765C6.31072 19.2552 5.92121 19.6447 5.431 19.848C5.064 20 4.598 20 3.666 20C2.734 20 2.268 20 1.901 19.848C1.65818 19.7475 1.43755 19.6001 1.25172 19.4143C1.0659 19.2284 0.918513 19.0078 0.818 18.765C0.666 18.398 0.666 17.932 0.666 17V3C0.666 2.068 0.666 1.602 0.818 1.235C1.02098 0.745166 1.41017 0.355982 1.9 0.153C2.269 1.19209e-07 2.735 0 3.667 0C4.599 0 5.065 -4.47035e-08 5.432 0.152C5.67482 0.252513 5.89545 0.399896 6.08128 0.585723C6.2671 0.771551 6.41349 0.992181 6.514 1.235ZM4.416 9C4.416 8.80109 4.33698 8.61032 4.19633 8.46967C4.05568 8.32902 3.86491 8.25 3.666 8.25C3.46709 8.25 3.27632 8.32902 3.13567 8.46967C2.99502 8.61032 2.916 8.80109 2.916 9V11C2.916 11.1989 2.99502 11.3897 3.13567 11.5303C3.27632 11.671 3.46709 11.75 3.666 11.75C3.86491 11.75 4.05568 11.671 4.19633 11.5303C4.33698 11.3897 4.416 11.1989 4.416 11V9Z" fill="white"/>
</svg>
