<svg width="431" height="371" viewBox="0 0 431 371" fill="none" xmlns="http://www.w3.org/2000/svg">
<g clip-path="url(#clip0_1_85)">
<rect width="431" height="371" rx="16" fill="url(#paint0_linear_1_85)"/>
<g filter="url(#filter0_bd_1_85)">
<path d="M295.91 265.643C295.002 266.167 293.885 266.571 292.642 266.799L252.568 274.159C241.192 276.245 230.974 277.116 221.322 276.829C200.206 276.207 180.387 271.202 165.522 262.723L116.577 234.825C106.417 229.27 108.375 215.623 111.897 211.399L144.636 184.629C146.488 182.374 149.685 180.511 153.608 179.391L218.61 160.711C225.878 158.615 234.565 159.375 240.2 162.595L289.181 190.513C304.031 198.976 314.034 199.942 315.388 212.113C317.295 224.028 313.534 234.001 310.066 240.567L297.863 263.744C297.489 264.466 296.811 265.114 295.91 265.643Z" fill="#00B6F1" shape-rendering="crispEdges"/>
<path d="M296.731 266.109L296.724 266.113C295.692 266.709 294.418 267.171 292.991 267.433L252.917 274.793L252.916 274.793C241.439 276.898 231.081 277.784 221.264 277.493L296.731 266.109ZM296.731 266.109C297.759 265.506 298.537 264.763 298.966 263.935C298.966 263.934 298.966 263.934 298.966 263.934L311.168 240.761C314.661 234.146 318.457 224.085 316.537 212.062C315.843 205.849 312.916 202.416 308.19 199.471C305.887 198.035 303.168 196.723 300.164 195.273L300.089 195.237C297.041 193.766 293.665 192.134 289.989 190.04L241.01 162.122C235.013 158.696 225.791 157.897 218.096 160.116L153.098 178.796C153.098 178.796 153.097 178.796 153.097 178.796C148.977 179.972 145.61 181.923 143.639 184.292L110.957 211.016C110.92 211.046 110.888 211.078 110.86 211.111M296.731 266.109L110.86 211.111M110.86 211.111C108.985 213.359 107.612 217.949 107.956 222.641C108.299 227.32 110.367 232.341 115.776 235.303L164.712 263.196C164.712 263.196 164.713 263.196 164.713 263.196M110.86 211.111L164.713 263.196M164.713 263.196C179.782 271.791 199.869 276.863 221.263 277.493L164.713 263.196Z" stroke="url(#paint1_linear_1_85)" stroke-width="1.88021" stroke-linecap="round" stroke-linejoin="round" shape-rendering="crispEdges"/>
</g>
<g filter="url(#filter1_b_1_85)">
<mask id="path-4-outside-1_1_85" maskUnits="userSpaceOnUse" x="75.9554" y="127.866" width="290.991" height="167.989" fill="black">
<rect fill="white" x="75.9554" y="127.866" width="290.991" height="167.989"/>
<path d="M295.909 253.629C295.001 254.154 293.884 254.558 292.641 254.786L252.567 262.146C241.191 264.232 230.973 265.102 221.322 264.816C200.205 264.194 180.386 259.189 165.521 250.709L116.576 222.812C110.926 219.593 109.513 214.591 113.036 210.367L144.635 172.616C146.487 170.36 149.684 168.498 153.607 167.378L218.61 148.697C225.877 146.601 234.564 147.362 240.199 150.581L289.18 178.499C304.031 186.962 312.95 198.326 314.304 210.498C314.924 216.081 313.533 221.988 310.066 228.554L297.862 251.73C297.488 252.452 296.81 253.101 295.909 253.629Z"/>
</mask>
<path d="M295.909 253.629C295.001 254.154 293.884 254.558 292.641 254.786L252.567 262.146C241.191 264.232 230.973 265.102 221.322 264.816C200.205 264.194 180.386 259.189 165.521 250.709L116.576 222.812C110.926 219.593 109.513 214.591 113.036 210.367L144.635 172.616C146.487 170.36 149.684 168.498 153.607 167.378L218.61 148.697C225.877 146.601 234.564 147.362 240.199 150.581L289.18 178.499C304.031 186.962 312.95 198.326 314.304 210.498C314.924 216.081 313.533 221.988 310.066 228.554L297.862 251.73C297.488 252.452 296.81 253.101 295.909 253.629Z" fill="url(#paint2_linear_1_85)"/>
<path d="M300.258 256.14C302.66 254.753 302.66 252.505 300.258 251.119C297.856 249.732 293.962 249.732 291.56 251.119L300.258 256.14ZM292.641 254.786L290.777 251.402L290.776 251.402L292.641 254.786ZM252.567 262.146L254.429 265.53L254.431 265.529L252.567 262.146ZM221.322 264.816L221.637 261.27L221.635 261.27L221.322 264.816ZM165.521 250.709L169.844 248.184L169.842 248.183L165.521 250.709ZM116.576 222.812L120.897 220.285L120.896 220.284L116.576 222.812ZM113.036 210.367L107.498 208.822L107.494 208.827L113.036 210.367ZM144.635 172.616L150.173 174.161C150.179 174.153 150.186 174.145 150.193 174.137L144.635 172.616ZM153.607 167.378L156.333 170.561L156.348 170.556L153.607 167.378ZM218.61 148.697L221.351 151.876L221.358 151.873L218.61 148.697ZM240.199 150.581L235.873 153.105L235.878 153.108L240.199 150.581ZM289.18 178.499L284.858 181.026L284.859 181.026L289.18 178.499ZM314.304 210.498L320.442 210.271L320.442 210.27L314.304 210.498ZM310.066 228.554L304.182 227.518L304.181 227.521L310.066 228.554ZM297.862 251.73L291.977 250.698C291.975 250.703 291.972 250.708 291.969 250.713L297.862 251.73ZM291.526 251.139C289.143 252.536 289.174 254.784 291.595 256.16C294.016 257.535 297.91 257.518 300.292 256.12L291.526 251.139ZM291.56 251.119C291.313 251.262 291.037 251.355 290.777 251.402L294.505 258.17C296.732 257.761 298.689 257.046 300.258 256.14L291.56 251.119ZM290.776 251.402L250.702 258.762L254.431 265.529L294.505 258.17L290.776 251.402ZM250.705 258.762C239.876 260.748 230.405 261.53 221.637 261.27L221.006 268.362C231.542 268.674 242.507 267.716 254.429 265.53L250.705 258.762ZM221.635 261.27C202.004 260.692 183.619 256.041 169.844 248.184L161.198 253.235C177.153 262.336 198.406 267.696 221.008 268.362L221.635 261.27ZM169.842 248.183L120.897 220.285L112.255 225.338L161.2 253.236L169.842 248.183ZM120.896 220.284C117.183 218.169 116.155 214.813 118.577 211.907L107.494 208.827C102.872 214.37 104.669 221.016 112.256 225.339L120.896 220.284ZM118.573 211.912L150.173 174.161L139.097 171.071L107.498 208.822L118.573 211.912ZM150.193 174.137C151.44 172.617 153.628 171.333 156.333 170.561L150.882 164.195C145.741 165.662 141.533 168.104 139.077 171.095L150.193 174.137ZM156.348 170.556L221.351 151.876L215.869 145.519L150.866 164.199L156.348 170.556ZM221.358 151.873C226.344 150.436 232.169 150.989 235.873 153.105L244.525 148.057C236.958 143.735 225.41 142.767 215.861 145.521L221.358 151.873ZM235.878 153.108L284.858 181.026L293.501 175.973L244.52 148.054L235.878 153.108ZM284.859 181.026C298.621 188.868 306.908 199.41 308.167 210.725L320.442 210.27C318.993 197.242 309.44 185.056 293.5 175.972L284.859 181.026ZM308.167 210.725C308.73 215.796 307.483 221.27 304.182 227.518L315.949 229.589C319.584 222.706 321.119 216.366 320.442 210.271L308.167 210.725ZM304.181 227.521L291.977 250.698L303.747 252.763L315.95 229.586L304.181 227.521ZM291.969 250.713C291.891 250.864 291.744 251.01 291.526 251.139L300.292 256.12C301.876 255.191 303.085 254.041 303.755 252.747L291.969 250.713Z" fill="url(#paint3_linear_1_85)" mask="url(#path-4-outside-1_1_85)"/>
</g>
<path d="M118.82 168.761L121.749 167.07C171.872 138.134 255.314 142.885 294.68 176.916L285.378 194.167C283.84 197.019 280.786 199.519 276.648 201.311L242.042 206.528C226.959 208.801 211.065 208.546 196.224 205.791L162.944 199.614L118.82 168.761Z" fill="#00B6F1"/>
<g filter="url(#filter2_b_1_85)">
<path d="M283.386 202.727L283.379 202.73C282.348 203.326 281.073 203.788 279.646 204.05L239.572 211.41L239.571 211.41C228.094 213.515 217.736 214.402 207.919 214.11L283.386 202.727ZM283.386 202.727C284.414 202.123 285.192 201.381 285.621 200.552C285.621 200.552 285.621 200.552 285.621 200.552L297.823 177.378C301.317 170.763 305.113 160.703 303.192 148.679C302.498 142.466 299.571 139.033 294.846 136.088C292.542 134.653 289.823 133.34 286.819 131.89L286.744 131.854C283.696 130.383 280.32 128.752 276.645 126.657L227.665 98.7395C221.668 95.3137 212.446 94.5142 204.751 96.7335L139.753 115.413C139.753 115.413 139.752 115.413 139.752 115.413C135.632 116.589 132.265 118.54 130.294 120.91L97.612 147.633C97.5752 147.663 97.5428 147.695 97.5152 147.728M283.386 202.727L97.5152 147.728M97.5152 147.728C95.6404 149.977 94.2668 154.567 94.6112 159.259C94.9546 163.938 97.0224 168.959 102.431 171.92L151.367 199.813C151.368 199.813 151.368 199.813 151.368 199.813M97.5152 147.728L151.368 199.813M151.368 199.813C166.437 208.409 186.524 213.48 207.918 214.11L151.368 199.813Z" fill="white" fill-opacity="0.5" stroke="url(#paint4_linear_1_85)" stroke-width="1.88021" stroke-linecap="round" stroke-linejoin="round"/>
</g>
<g filter="url(#filter3_b_1_85)">
<mask id="path-8-outside-2_1_85" maskUnits="userSpaceOnUse" x="62.6115" y="64.4841" width="290.991" height="167.989" fill="black">
<rect fill="white" x="62.6115" y="64.4841" width="290.991" height="167.989"/>
<path d="M282.565 190.247C281.657 190.771 280.541 191.175 279.297 191.404L239.223 198.764C227.848 200.85 217.63 201.72 207.978 201.433C186.861 200.812 167.042 195.806 152.177 187.327L103.232 159.429C97.5822 156.21 96.1695 151.209 99.6917 146.985L131.291 109.234C133.143 106.978 136.34 105.115 140.264 103.996L205.266 85.315C212.533 83.2189 221.22 83.9796 226.855 87.1988L275.836 115.117C290.687 123.58 299.606 134.944 300.961 147.115C301.58 152.699 300.189 158.606 296.722 165.171L284.518 188.348C284.144 189.07 283.466 189.719 282.565 190.247Z"/>
</mask>
<path d="M282.565 190.247C281.657 190.771 280.541 191.175 279.297 191.404L239.223 198.764C227.848 200.85 217.63 201.72 207.978 201.433C186.861 200.812 167.042 195.806 152.177 187.327L103.232 159.429C97.5822 156.21 96.1695 151.209 99.6917 146.985L131.291 109.234C133.143 106.978 136.34 105.115 140.264 103.996L205.266 85.315C212.533 83.2189 221.22 83.9796 226.855 87.1988L275.836 115.117C290.687 123.58 299.606 134.944 300.961 147.115C301.58 152.699 300.189 158.606 296.722 165.171L284.518 188.348C284.144 189.07 283.466 189.719 282.565 190.247Z" fill="white" fill-opacity="0.5"/>
<path d="M286.914 192.758C289.316 191.371 289.316 189.123 286.914 187.736C284.512 186.35 280.618 186.35 278.216 187.736L286.914 192.758ZM279.297 191.404L277.433 188.02L277.432 188.02L279.297 191.404ZM239.223 198.764L241.085 202.148L241.088 202.147L239.223 198.764ZM207.978 201.433L208.293 197.887L208.291 197.887L207.978 201.433ZM152.177 187.327L156.5 184.801L156.498 184.8L152.177 187.327ZM103.232 159.429L107.553 156.903L107.553 156.902L103.232 159.429ZM99.6917 146.985L94.1539 145.44L94.15 145.445L99.6917 146.985ZM131.291 109.234L136.829 110.778C136.836 110.77 136.842 110.762 136.849 110.754L131.291 109.234ZM140.264 103.996L142.989 107.179L143.004 107.174L140.264 103.996ZM205.266 85.315L208.007 88.4935L208.015 88.4913L205.266 85.315ZM226.855 87.1988L222.529 89.7227L222.534 89.7255L226.855 87.1988ZM275.836 115.117L271.515 117.644L271.515 117.644L275.836 115.117ZM300.961 147.115L307.098 146.888L307.098 146.888L300.961 147.115ZM296.722 165.171L290.839 164.136L290.837 164.139L296.722 165.171ZM284.518 188.348L278.634 187.315C278.631 187.321 278.628 187.326 278.625 187.331L284.518 188.348ZM278.182 187.756C275.799 189.154 275.83 191.402 278.251 192.778C280.672 194.153 284.566 194.135 286.949 192.738L278.182 187.756ZM278.216 187.736C277.969 187.879 277.693 187.972 277.433 188.02L281.161 194.787C283.388 194.379 285.346 193.663 286.914 192.758L278.216 187.736ZM277.432 188.02L237.358 195.38L241.088 202.147L281.161 194.787L277.432 188.02ZM237.361 195.38C226.532 197.365 217.061 198.148 208.293 197.887L207.662 204.979C218.198 205.292 229.163 204.334 241.085 202.148L237.361 195.38ZM208.291 197.887C188.661 197.309 170.275 192.659 156.5 184.801L147.854 189.853C163.809 198.954 185.062 204.314 207.664 204.979L208.291 197.887ZM156.498 184.8L107.553 156.903L98.911 161.956L147.856 189.854L156.498 184.8ZM107.553 156.902C103.839 154.786 102.811 151.43 105.234 148.525L94.15 145.445C89.5282 150.987 91.3256 157.634 98.9119 161.957L107.553 156.902ZM105.23 148.53L136.829 110.778L125.753 107.689L94.154 145.44L105.23 148.53ZM136.849 110.754C138.097 109.234 140.284 107.951 142.989 107.179L137.538 100.813C132.397 102.28 128.189 104.721 125.733 107.713L136.849 110.754ZM143.004 107.174L208.007 88.4935L202.525 82.1364L137.523 100.817L143.004 107.174ZM208.015 88.4913C213 87.0534 218.825 87.6069 222.529 89.7227L231.181 84.6749C223.614 80.3523 212.067 79.3844 202.517 82.1386L208.015 88.4913ZM222.534 89.7255L271.515 117.644L280.157 112.591L231.176 84.6722L222.534 89.7255ZM271.515 117.644C285.277 125.486 293.564 136.028 294.823 147.343L307.098 146.888C305.649 133.86 296.097 121.674 280.156 112.59L271.515 117.644ZM294.823 147.342C295.386 152.414 294.139 157.887 290.839 164.136L302.605 166.207C306.24 159.324 307.775 152.984 307.098 146.888L294.823 147.342ZM290.837 164.139L278.634 187.315L290.403 189.381L302.606 166.204L290.837 164.139ZM278.625 187.331C278.548 187.481 278.401 187.628 278.182 187.756L286.949 192.738C288.532 191.809 289.741 190.659 290.411 189.365L278.625 187.331Z" fill="url(#paint5_linear_1_85)" mask="url(#path-8-outside-2_1_85)"/>
</g>
<g filter="url(#filter4_i_1_85)">
<path d="M189.419 158.576L189.419 158.577C189.391 160.608 192.213 162.22 195.746 162.187C195.746 162.187 195.747 162.187 195.748 162.187L222.93 161.881C224.707 161.86 226.314 161.426 227.498 160.736C228.678 160.048 229.406 159.114 229.417 158.088L229.417 158.087L229.809 125.766L229.809 125.764C229.843 123.739 227.016 122.123 223.475 122.16C219.931 122.198 217.019 123.897 216.99 125.954L189.419 158.576ZM189.419 158.576C189.442 156.525 192.351 154.825 195.906 154.783C195.906 154.783 195.906 154.783 195.906 154.783L215.462 154.56L216.64 154.547L216.648 153.867L216.99 125.954L189.419 158.576Z" fill="#00B6F1" stroke="url(#paint6_linear_1_85)" stroke-width="1.97579"/>
</g>
</g>
<defs>
<filter id="filter0_bd_1_85" x="-43.6651" y="113.082" width="512.287" height="503.567" filterUnits="userSpaceOnUse" color-interpolation-filters="sRGB">
<feFlood flood-opacity="0" result="BackgroundImageFix"/>
<feGaussianBlur in="BackgroundImageFix" stdDeviation="22.5625"/>
<feComposite in2="SourceAlpha" operator="in" result="effect1_backgroundBlur_1_85"/>
<feColorMatrix in="SourceAlpha" type="matrix" values="0 0 0 0 0 0 0 0 0 0 0 0 0 0 0 0 0 0 127 0" result="hardAlpha"/>
<feOffset dy="188.021"/>
<feGaussianBlur stdDeviation="75.2084"/>
<feComposite in2="hardAlpha" operator="out"/>
<feColorMatrix type="matrix" values="0 0 0 0 0.343982 0 0 0 0 1 0 0 0 0 0.448945 0 0 0 0.5 0"/>
<feBlend mode="normal" in2="effect1_backgroundBlur_1_85" result="effect2_dropShadow_1_85"/>
<feBlend mode="normal" in="SourceGraphic" in2="effect2_dropShadow_1_85" result="shape"/>
</filter>
<filter id="filter1_b_1_85" x="59.8429" y="98.8481" width="305.88" height="214.696" filterUnits="userSpaceOnUse" color-interpolation-filters="sRGB">
<feFlood flood-opacity="0" result="BackgroundImageFix"/>
<feGaussianBlur in="BackgroundImageFix" stdDeviation="22.5625"/>
<feComposite in2="SourceAlpha" operator="in" result="effect1_backgroundBlur_1_85"/>
<feBlend mode="normal" in="SourceGraphic" in2="effect1_backgroundBlur_1_85" result="shape"/>
</filter>
<filter id="filter2_b_1_85" x="59.9287" y="61.3469" width="278.41" height="186.96" filterUnits="userSpaceOnUse" color-interpolation-filters="sRGB">
<feFlood flood-opacity="0" result="BackgroundImageFix"/>
<feGaussianBlur in="BackgroundImageFix" stdDeviation="16.739"/>
<feComposite in2="SourceAlpha" operator="in" result="effect1_backgroundBlur_1_85"/>
<feBlend mode="normal" in="SourceGraphic" in2="effect1_backgroundBlur_1_85" result="shape"/>
</filter>
<filter id="filter3_b_1_85" x="24.6679" y="13.6348" width="349.542" height="258.359" filterUnits="userSpaceOnUse" color-interpolation-filters="sRGB">
<feFlood flood-opacity="0" result="BackgroundImageFix"/>
<feGaussianBlur in="BackgroundImageFix" stdDeviation="33.4781"/>
<feComposite in2="SourceAlpha" operator="in" result="effect1_backgroundBlur_1_85"/>
<feBlend mode="normal" in="SourceGraphic" in2="effect1_backgroundBlur_1_85" result="shape"/>
</filter>
<filter id="filter4_i_1_85" x="188.209" y="121.461" width="42.8099" height="45.2118" filterUnits="userSpaceOnUse" color-interpolation-filters="sRGB">
<feFlood flood-opacity="0" result="BackgroundImageFix"/>
<feBlend mode="normal" in="SourceGraphic" in2="BackgroundImageFix" result="shape"/>
<feColorMatrix in="SourceAlpha" type="matrix" values="0 0 0 0 0 0 0 0 0 0 0 0 0 0 0 0 0 0 127 0" result="hardAlpha"/>
<feOffset dy="8.80474"/>
<feGaussianBlur stdDeviation="1.89372"/>
<feComposite in2="hardAlpha" operator="arithmetic" k2="-1" k3="1"/>
<feColorMatrix type="matrix" values="0 0 0 0 1 0 0 0 0 1 0 0 0 0 1 0 0 0 1 0"/>
<feBlend mode="normal" in2="shape" result="effect1_innerShadow_1_85"/>
</filter>
<linearGradient id="paint0_linear_1_85" x1="347.463" y1="36.4747" x2="128.883" y2="413.969" gradientUnits="userSpaceOnUse">
<stop stop-color="#00B6F1"/>
<stop offset="1" stop-color="#4551A3"/>
</linearGradient>
<linearGradient id="paint1_linear_1_85" x1="123.422" y1="215.69" x2="319.915" y2="225.85" gradientUnits="userSpaceOnUse">
<stop stop-color="white" stop-opacity="0.25"/>
<stop offset="1" stop-color="white" stop-opacity="0"/>
</linearGradient>
<linearGradient id="paint2_linear_1_85" x1="148.689" y1="169.372" x2="221.972" y2="296.313" gradientUnits="userSpaceOnUse">
<stop stop-color="#27C7FC"/>
<stop offset="1" stop-color="#4551A3"/>
</linearGradient>
<linearGradient id="paint3_linear_1_85" x1="212.585" y1="196.856" x2="218.79" y2="271.158" gradientUnits="userSpaceOnUse">
<stop stop-color="white" stop-opacity="0.43"/>
<stop offset="0.846595" stop-color="white"/>
<stop offset="1" stop-color="white" stop-opacity="0"/>
</linearGradient>
<linearGradient id="paint4_linear_1_85" x1="110.077" y1="152.307" x2="306.57" y2="162.467" gradientUnits="userSpaceOnUse">
<stop stop-color="white" stop-opacity="0.25"/>
<stop offset="1" stop-color="white" stop-opacity="0"/>
</linearGradient>
<linearGradient id="paint5_linear_1_85" x1="234.647" y1="205.766" x2="246.889" y2="103.131" gradientUnits="userSpaceOnUse">
<stop stop-color="white" stop-opacity="0.79"/>
<stop offset="1" stop-color="white" stop-opacity="0"/>
</linearGradient>
<linearGradient id="paint6_linear_1_85" x1="183.49" y1="147.931" x2="235.992" y2="171.685" gradientUnits="userSpaceOnUse">
<stop stop-color="white" stop-opacity="0.25"/>
<stop offset="1" stop-color="white" stop-opacity="0"/>
</linearGradient>
<clipPath id="clip0_1_85">
<rect width="431" height="371" rx="16" fill="white"/>
</clipPath>
</defs>
</svg>
