<svg width="16" height="6" viewBox="0 0 16 6" fill="none" xmlns="http://www.w3.org/2000/svg">
<path fill-rule="evenodd" clip-rule="evenodd" d="M13.2 0H2.80001C1.75121 0 0.836809 0.617647 0.35761 1.53238C0.121505 1.9846 -0.00128805 2.48855 1.01881e-05 3C1.01881e-05 4.65623 1.25361 6 2.80001 6H13.2C14.7464 6 16 4.65623 16 3C16.0013 2.48855 15.8785 1.9846 15.6424 1.53238C15.1624 0.617647 14.2488 0 13.2 0ZM12.8 2.15488C12.9591 2.15488 13.1117 2.21885 13.2243 2.33271C13.3368 2.44656 13.4 2.60099 13.4 2.76201V3.57151C13.4 3.73252 13.3368 3.88695 13.2243 4.00081C13.1117 4.11467 12.9591 4.17863 12.8 4.17863C12.6409 4.17863 12.4883 4.11467 12.3757 4.00081C12.2632 3.88695 12.2 3.73252 12.2 3.57151V2.76201C12.2 2.60099 12.2632 2.44656 12.3757 2.33271C12.4883 2.21885 12.6409 2.15488 12.8 2.15488ZM11.4 2.76201C11.4 2.60099 11.3368 2.44656 11.2243 2.33271C11.1117 2.21885 10.9591 2.15488 10.8 2.15488C10.6409 2.15488 10.4883 2.21885 10.3757 2.33271C10.2632 2.44656 10.2 2.60099 10.2 2.76201V3.57151C10.2 3.73252 10.2632 3.88695 10.3757 4.00081C10.4883 4.11467 10.6409 4.17863 10.8 4.17863C10.9591 4.17863 11.1117 4.11467 11.2243 4.00081C11.3368 3.88695 11.4 3.73252 11.4 3.57151V2.76201ZM8.8 2.15488C8.95913 2.15488 9.11174 2.21885 9.22426 2.33271C9.33678 2.44656 9.4 2.60099 9.4 2.76201V3.57151C9.4 3.73252 9.33678 3.88695 9.22426 4.00081C9.11174 4.11467 8.95913 4.17863 8.8 4.17863C8.64087 4.17863 8.48826 4.11467 8.37574 4.00081C8.26321 3.88695 8.2 3.73252 8.2 3.57151V2.76201C8.2 2.60099 8.26321 2.44656 8.37574 2.33271C8.48826 2.21885 8.64087 2.15488 8.8 2.15488ZM7.4 2.76201C7.4 2.60099 7.33679 2.44656 7.22426 2.33271C7.11174 2.21885 6.95913 2.15488 6.8 2.15488C6.64087 2.15488 6.48826 2.21885 6.37574 2.33271C6.26322 2.44656 6.2 2.60099 6.2 2.76201V3.57151C6.2 3.73252 6.26322 3.88695 6.37574 4.00081C6.48826 4.11467 6.64087 4.17863 6.8 4.17863C6.95913 4.17863 7.11174 4.11467 7.22426 4.00081C7.33679 3.88695 7.4 3.73252 7.4 3.57151V2.76201Z" fill="white"/>
</svg>
