<svg width="21" height="6" viewBox="0 0 21 6" fill="none" xmlns="http://www.w3.org/2000/svg">
<path opacity="0.5" d="M16.666 0H17.666C18.598 0 19.064 4.32134e-07 19.431 0.152C19.6738 0.252513 19.8944 0.399896 20.0803 0.585724C20.2661 0.771552 20.4135 0.99218 20.514 1.235C20.666 1.602 20.666 2.068 20.666 3C20.666 3.932 20.666 4.398 20.514 4.765C20.4135 5.00782 20.2661 5.22845 20.0803 5.41428C19.8944 5.6001 19.6738 5.74749 19.431 5.848C19.064 6 18.598 6 17.666 6H16.666V0ZM10.666 0V6H3.666C2.734 6 2.268 6 1.901 5.848C1.65818 5.74749 1.43755 5.6001 1.25172 5.41428C1.0659 5.22845 0.918513 5.00782 0.818 4.765C0.666 4.398 0.666 3.932 0.666 3C0.666 2.068 0.666 1.602 0.818 1.235C0.918513 0.99218 1.0659 0.771552 1.25172 0.585724C1.43755 0.399896 1.65818 0.252513 1.901 0.152C2.268 4.32134e-07 2.734 0 3.666 0H10.666Z" fill="white"/>
</svg>
