<svg width="88" height="35" viewBox="0 0 88 35" fill="none" xmlns="http://www.w3.org/2000/svg">
<path d="M15.0684 9.7454H10.6937L3.5202 17.296V9.7454H0.348694V25.9026H3.5202V21.9513L6.67209 18.6176L11.7138 25.8959H15.8531L8.94119 16.2069L15.0684 9.7454ZM49.5299 9.7454L46.7116 10.6884L41.1729 12.5744V12.6076C40.2966 12.9529 39.4988 13.4776 38.8384 14.1483C38.1714 14.819 37.6548 15.6292 37.3147 16.5124C36.9747 17.4023 36.8178 18.3519 36.857 19.3016C36.8962 20.2512 37.1316 21.1876 37.5502 22.0442C37.9621 22.9009 38.5506 23.658 39.27 24.2689C39.9893 24.8799 40.8263 25.3381 41.7287 25.6037C42.6311 25.8694 43.5793 25.9424 44.5079 25.8162C45.4364 25.6901 46.3323 25.3713 47.1366 24.8732C47.2674 24.7869 47.3982 24.7006 47.529 24.6076L49.5496 23.233V25.8893H52.7341V9.7454H49.5299ZM49.5299 19.109L45.5083 22.0774C44.9264 22.4626 44.2463 22.6685 43.5531 22.6685C42.703 22.6685 41.8791 22.3564 41.2317 21.7985C40.5843 21.2341 40.1527 20.4571 40.022 19.6071C39.8846 18.757 40.0547 17.8804 40.4993 17.1433C40.944 16.4062 41.6306 15.855 42.4415 15.5827L49.5234 12.9795L49.5299 19.109ZM66.4926 12.1826V17.8339H66.4795C66.4795 17.9668 66.4926 18.0996 66.4926 18.239C66.4926 19.3082 66.0741 20.3375 65.3286 21.0946C64.5832 21.8517 63.5696 22.2767 62.5168 22.2767C61.464 22.2767 60.4504 21.8517 59.7049 21.0946C58.9595 20.3375 58.541 19.3082 58.541 18.239C58.541 18.1062 58.5475 17.9734 58.5606 17.8339H58.541V9.7454H55.3564V17.8273C55.3564 17.9601 55.3564 18.0929 55.3564 18.2324C55.3564 19.5473 55.7095 20.8422 56.3765 21.9712C57.0435 23.1001 57.9982 24.0232 59.1426 24.6474C60.2869 25.265 61.5751 25.5639 62.8699 25.4975C64.1647 25.4311 65.4202 25.0127 66.4991 24.2822V29.13C66.4991 29.7742 66.3487 30.4051 66.061 30.9762C65.7733 31.5473 65.3548 32.0387 64.8382 32.4172L67.1073 34.7216C67.9182 34.0376 68.5655 33.1876 69.0102 32.218C69.4549 31.2551 69.6903 30.1992 69.6903 29.13V9.7454H66.5057V12.1826H66.4926ZM27.5713 9.7454H18.4165V34.7216H21.6011V25.9026L25.1518 24.7072L29.9647 23.0802V23.047C31.4491 22.4825 32.6915 21.4067 33.4762 20.0055C34.2609 18.6043 34.5356 16.9706 34.2479 15.3901C33.9667 13.8096 33.1427 12.3752 31.9264 11.3458C30.7102 10.3165 29.1734 9.75204 27.591 9.75204H27.5713V9.7454ZM28.683 20.0653L21.6011 22.6552V12.9729H27.5713C28.4214 12.9729 29.2454 13.285 29.8928 13.8428C30.5401 14.4073 30.9717 15.1843 31.1025 16.0343C31.2333 16.8843 31.0698 17.7609 30.6251 18.498C30.1805 19.2418 29.4939 19.793 28.683 20.0653ZM85.4366 0.946289L83.1675 3.25066C83.6841 3.62255 84.1026 4.12061 84.3904 4.69172C84.6781 5.26284 84.8285 5.90036 84.8285 6.53788V9.78525L81.2843 10.9872L76.4779 12.6142V12.6474C74.9936 13.2119 73.7511 14.2877 72.9664 15.689C72.1817 17.0902 71.9071 18.7238 72.1948 20.3043C72.476 21.8849 73.2999 23.3193 74.5162 24.3486C75.7325 25.3779 77.2692 25.9424 78.8517 25.9424H88V6.53788C88.0065 5.47534 87.7777 4.41945 87.333 3.44989C86.8883 2.48696 86.241 1.6303 85.4366 0.946289ZM84.8154 22.6884H78.8582C78.0081 22.6884 77.1842 22.3829 76.5368 21.8185C75.8894 21.254 75.4578 20.477 75.327 19.627C75.1963 18.7703 75.3663 17.9004 75.811 17.1632C76.2556 16.4261 76.9422 15.8749 77.7531 15.6026L84.835 12.9994L84.8154 22.6884Z" fill="#00151C"/>
</svg>
