<svg width="7" height="7" viewBox="0 0 7 7" fill="none" xmlns="http://www.w3.org/2000/svg">
<path fill-rule="evenodd" clip-rule="evenodd" d="M0.513 6.487C1.025 7 1.85 7 3.5 7C5.15 7 5.975 7 6.487 6.487C7 5.975 7 5.15 7 3.5C7 1.85 7 1.025 6.487 0.513C5.975 -4.76837e-07 5.15 0 3.5 0C1.85 0 1.025 -4.76837e-07 0.513 0.513C-4.76837e-07 1.025 0 1.85 0 3.5C0 5.15 -4.76837e-07 5.975 0.513 6.487ZM2.527 4.977C1.824 4.474 1 3.883 1 2.86C1 1.73 2.375 0.928999 3.5 2.015C4.625 0.927999 6 1.73 6 2.86C6 3.883 5.175 4.474 4.473 4.977L4.26 5.131C4 5.321 3.75 5.5 3.5 5.5C3.25 5.5 3 5.32 2.74 5.13L2.527 4.977Z" fill="white"/>
</svg>
