<svg width="16" height="13" viewBox="0 0 16 13" fill="none" xmlns="http://www.w3.org/2000/svg">
<path d="M10.67 0.907023L13.263 3.15502C15.048 4.70102 15.941 5.47502 15.941 6.48002C15.941 7.48402 15.048 8.25802 13.263 9.80502L10.67 12.052C9.885 12.732 9.493 13.072 9.172 12.925C8.85001 12.779 8.85 12.259 8.85 11.221V9.54402C6.2 9.54402 3.373 10.532 1.65 12.244C1.125 12.764 0.862004 13.025 0.723004 12.959C0.583004 12.893 0.616004 12.556 0.681004 11.883C1.329 5.16202 5.742 3.41502 8.85 3.41502V1.74002C8.85 0.700023 8.85001 0.182023 9.172 0.0350229C9.493 -0.111977 9.885 0.228023 10.67 0.908023" fill="white"/>
</svg>
