<svg width="539" height="205" viewBox="0 0 539 205" fill="none" xmlns="http://www.w3.org/2000/svg">
<path d="M90.5391 53.654H63.6398L19.5631 99.3709V53.6241H0V151.47H19.5631V127.553L38.9771 107.363L69.9322 151.47H95.4299L52.9338 92.8101L90.5391 53.654ZM302.423 53.654L285.067 59.4394L251.07 70.8612V71.0401C245.643 73.068 240.692 76.2291 236.547 80.2849C232.402 84.3407 229.151 89.2315 227.004 94.6292C224.857 100.027 223.873 105.812 224.111 111.598C224.35 117.383 225.781 123.079 228.346 128.298C230.911 133.517 234.519 138.11 238.962 141.837C243.406 145.565 248.595 148.309 254.172 149.919C259.748 151.529 265.593 151.947 271.349 151.172C277.105 150.396 282.622 148.398 287.542 145.356C288.377 144.849 289.153 144.342 289.928 143.746L302.364 135.426V151.559H321.927V53.6241H302.423V53.654ZM302.423 110.375L277.701 128.328C275.077 130.028 272.124 131.161 269.023 131.638C265.921 132.115 262.76 131.907 259.748 131.072C256.736 130.237 253.933 128.745 251.547 126.747C249.161 124.749 247.223 122.244 245.851 119.411C244.509 116.578 243.764 113.507 243.704 110.405C243.644 107.274 244.241 104.172 245.464 101.309C246.686 98.4166 248.505 95.8519 250.802 93.7346C253.098 91.6172 255.842 90.0069 258.794 89.0227L302.364 73.247L302.423 110.375ZM406.74 68.5053V102.741H406.591C406.591 103.546 406.68 104.351 406.68 105.186C406.68 111.658 404.116 117.89 399.523 122.483C394.931 127.075 388.728 129.64 382.227 129.64C375.725 129.64 369.522 127.075 364.93 122.483C360.337 117.89 357.773 111.687 357.773 105.186C357.773 104.381 357.802 103.546 357.892 102.741H357.773V53.654H338.269V102.592C338.269 103.397 338.269 104.202 338.269 105.037C338.269 113 340.416 120.843 344.532 127.672C348.617 134.501 354.492 140.108 361.53 143.865C368.568 147.623 376.471 149.412 384.433 149.024C392.396 148.637 400.09 146.102 406.74 141.658V171.093C406.74 174.969 405.816 178.816 404.056 182.276C402.267 185.735 399.702 188.717 396.541 190.984L410.468 204.911C415.448 200.795 419.444 195.606 422.158 189.761C424.902 183.916 426.333 177.534 426.303 171.093V53.6838H406.71L406.74 68.5053ZM167.39 53.7434H111.146V205H130.709V151.5L152.539 144.223L182.182 134.352V134.173C191.307 130.744 198.942 124.242 203.773 115.773C208.574 107.304 210.274 97.4027 208.544 87.8299C206.814 78.2272 201.745 69.5788 194.259 63.3163C186.774 57.0835 177.35 53.654 167.599 53.654L167.39 53.7434ZM174.249 116.25L130.679 131.996V73.1873H167.39C172.639 73.1873 177.679 75.0661 181.675 78.4658C185.671 81.8655 188.295 86.5773 189.13 91.7365C189.965 96.8957 188.921 102.204 186.178 106.677C183.464 111.151 179.229 114.491 174.249 116.131V116.25ZM523.224 0.481552L509.297 14.3189C512.459 16.5854 515.053 19.5675 516.842 23.0567C518.632 26.516 519.526 30.3631 519.526 34.2698V53.8329L497.697 61.1095L468.143 70.9507V71.1594C459.018 74.5889 451.383 81.0901 446.552 89.5595C441.751 98.0289 440.051 107.93 441.781 117.503C443.51 127.105 448.58 135.754 456.065 142.016C463.551 148.249 472.974 151.679 482.726 151.679H539V34.2698C539.03 27.7984 537.628 21.4165 534.885 15.5714C532.141 9.72633 528.175 4.53733 523.194 0.39209V0.481552H523.224ZM519.407 132.175H482.816C477.567 132.175 472.497 130.296 468.531 126.926C464.535 123.527 461.911 118.815 461.076 113.656C460.241 108.496 461.284 103.188 463.998 98.7149C466.712 94.2416 470.947 90.9015 475.927 89.2613L519.497 73.5154L519.407 132.175Z" fill="white"/>
</svg>
