<svg width="292" height="291" viewBox="0 0 292 291" fill="none" xmlns="http://www.w3.org/2000/svg">
<path d="M203.132 122.449C203.132 141.535 187.654 157.012 168.568 157.012C149.482 157.012 134.005 141.535 134.005 122.449C134.005 103.363 149.482 87.8851 168.568 87.8851C187.654 87.8851 203.132 103.333 203.132 122.449ZM97.2045 195.691C85.3056 195.691 75.6135 205.354 75.6135 217.282C75.6135 229.211 85.2758 238.873 97.2045 238.873C109.133 238.873 118.795 229.211 118.795 217.282C118.795 205.354 109.133 195.691 97.2045 195.691ZM108.686 141.445C96.787 141.445 87.0949 151.108 87.0949 163.036C87.0949 174.935 96.7572 184.627 108.686 184.627C120.585 184.627 130.277 174.965 130.277 163.036C130.247 151.108 120.585 141.445 108.686 141.445ZM104.57 32.9532C92.6716 32.9532 82.9795 42.6155 82.9795 54.5442C82.9795 66.4432 92.6417 76.1353 104.57 76.1353C116.469 76.1353 126.161 66.473 126.161 54.5442C126.161 42.6155 116.469 32.9532 104.57 32.9532ZM21.6359 142.012C9.73702 142.012 0.0449219 151.674 0.0449219 163.603C0.0449219 175.532 9.7072 185.194 21.6359 185.194C33.5349 185.194 43.227 175.532 43.227 163.603C43.227 151.674 33.5349 142.012 21.6359 142.012ZM226.244 76.8808C214.345 76.8808 204.653 86.5431 204.653 98.4719C204.653 110.371 214.315 120.063 226.244 120.063C238.143 120.063 247.835 110.401 247.835 98.4719C247.805 86.5431 238.143 76.8808 226.244 76.8808ZM278.7 117.051C271.513 117.051 265.698 122.866 265.698 130.053C265.698 137.24 271.513 143.056 278.7 143.056C285.887 143.056 291.703 137.24 291.703 130.053C291.732 122.896 285.887 117.051 278.7 117.051ZM81.6673 249.937C74.4802 249.937 68.665 255.753 68.665 262.94C68.665 270.127 74.4802 275.942 81.6673 275.942C88.8544 275.942 94.6696 270.127 94.6696 262.94C94.6696 255.753 88.8544 249.937 81.6673 249.937ZM203.788 43.1225C196.601 43.1225 190.785 48.9377 190.785 56.1248C190.785 63.3119 196.601 69.1271 203.788 69.1271C210.975 69.1271 216.79 63.3119 216.79 56.1248C216.79 48.9377 210.975 43.1225 203.788 43.1225ZM56.4082 48.5799C49.2211 48.5799 43.4059 54.3951 43.4059 61.5822C43.4059 68.7693 49.2211 74.5845 56.4082 74.5845C63.5953 74.5845 69.4105 68.7693 69.4105 61.5822C69.4105 54.3951 63.5953 48.5799 56.4082 48.5799ZM261.046 64.296C253.859 64.296 248.043 70.1113 248.043 77.2983C248.043 84.4854 253.859 90.3007 261.046 90.3007C268.233 90.3007 274.048 84.4854 274.048 77.2983C274.048 70.1113 268.203 64.296 261.046 64.296ZM115.992 91.0462C108.805 91.0462 102.99 96.8615 102.99 104.049C102.99 111.236 108.805 117.051 115.992 117.051C123.179 117.051 128.995 111.236 128.995 104.049C129.024 96.8615 123.179 91.0462 115.992 91.0462ZM150.019 56.1248C142.832 56.1248 137.017 61.9401 137.017 69.1271C137.017 76.3142 142.832 82.1295 150.019 82.1295C157.206 82.1295 163.021 76.3142 163.021 69.1271C163.021 61.9401 157.206 56.1248 150.019 56.1248ZM67.2932 22.7243C62.5515 22.7243 58.7045 26.5713 58.7045 31.313C58.7045 36.0547 62.5515 39.9017 67.2932 39.9017C72.0348 39.9017 75.8819 36.0547 75.8819 31.313C75.8521 26.5713 72.005 22.7243 67.2932 22.7243ZM241.99 127.25C237.248 127.25 233.401 131.097 233.401 135.839C233.401 140.58 237.248 144.427 241.99 144.427C246.731 144.427 250.578 140.58 250.578 135.839C250.548 131.097 246.701 127.25 241.99 127.25ZM280.639 167.032C275.897 167.032 272.05 170.879 272.05 175.621C272.05 180.363 275.897 184.21 280.639 184.21C285.38 184.21 289.227 180.363 289.227 175.621C289.227 170.879 285.38 167.032 280.639 167.032ZM261.344 212.57C256.602 212.57 252.755 216.417 252.755 221.159C252.755 225.901 256.602 229.748 261.344 229.748C266.086 229.748 269.933 225.901 269.933 221.159C269.933 216.417 266.086 212.57 261.344 212.57ZM234.325 226.02C229.584 226.02 225.737 229.867 225.737 234.609C225.737 239.35 229.584 243.197 234.325 243.197C239.067 243.197 242.914 239.35 242.914 234.609C242.914 229.867 239.067 226.02 234.325 226.02ZM166.093 273.586C161.351 273.586 157.504 277.433 157.504 282.175C157.504 286.916 161.351 290.763 166.093 290.763C170.835 290.763 174.682 286.916 174.682 282.175C174.682 277.433 170.835 273.586 166.093 273.586ZM124.82 0C120.078 0 116.231 3.84702 116.231 8.5887C116.231 13.3304 120.078 17.1774 124.82 17.1774C129.561 17.1774 133.408 13.3304 133.408 8.5887C133.408 3.84702 129.531 0 124.82 0ZM221.651 252.353C216.909 252.353 213.062 256.2 213.062 260.942C213.062 265.683 216.909 269.53 221.651 269.53C226.393 269.53 230.24 265.683 230.24 260.942C230.24 256.2 226.393 252.353 221.651 252.353ZM133.08 251.309C128.338 251.309 124.491 255.156 124.491 259.898C124.491 264.639 128.338 268.486 133.08 268.486C137.822 268.486 141.669 264.639 141.669 259.898C141.669 255.156 137.822 251.309 133.08 251.309ZM119.72 272.662C114.978 272.662 111.131 276.509 111.131 281.25C111.131 285.992 114.978 289.839 119.72 289.839C124.462 289.839 128.309 285.992 128.309 281.25C128.309 276.509 124.462 272.662 119.72 272.662ZM198.39 8.8571C193.648 8.8571 189.801 12.7041 189.801 17.4458C189.801 22.1875 193.648 26.0345 198.39 26.0345C203.132 26.0345 206.979 22.1875 206.979 17.4458C206.979 12.7041 203.132 8.8571 198.39 8.8571ZM235.041 31.1937C230.299 31.1937 226.452 35.0407 226.452 39.7824C226.452 44.5241 230.299 48.3711 235.041 48.3711C239.783 48.3711 243.63 44.5241 243.63 39.7824C243.63 35.0407 239.783 31.1937 235.041 31.1937ZM24.0217 70.7673C19.28 70.7673 15.433 74.6144 15.433 79.356C15.433 84.0977 19.28 87.9447 24.0217 87.9447C28.7634 87.9447 32.6104 84.0977 32.6104 79.356C32.6104 74.6144 28.7634 70.7673 24.0217 70.7673ZM10.3036 107.955C5.56196 107.955 1.71495 111.802 1.71495 116.544C1.71495 121.286 5.56196 125.133 10.3036 125.133C15.0453 125.133 18.8923 121.286 18.8923 116.544C18.8625 111.802 15.0453 107.955 10.3036 107.955ZM64.5496 164.766C59.8079 164.766 55.9609 168.613 55.9609 173.355C55.9609 178.096 59.8079 181.914 64.5496 181.914C69.2912 181.914 73.1383 178.066 73.1383 173.325C73.1383 168.583 69.2912 164.766 64.5496 164.766ZM85.3056 11.8095C82.8602 11.8095 80.8919 13.7777 80.8919 16.2231C80.8919 18.6685 82.8602 20.6367 85.3056 20.6367C87.751 20.6367 89.7192 18.6685 89.7192 16.2231C89.7192 13.8075 87.751 11.8095 85.3056 11.8095ZM160.516 169.836C148.617 169.836 138.925 179.498 138.925 191.427C138.925 203.326 148.588 213.018 160.516 213.018C172.415 213.018 182.107 203.355 182.107 191.427C182.077 179.498 172.415 169.836 160.516 169.836ZM223.798 150.034C204.712 150.034 189.235 165.511 189.235 184.597C189.235 203.683 204.712 219.161 223.798 219.161C242.884 219.161 258.362 203.683 258.362 184.597C258.362 165.511 242.884 150.034 223.798 150.034ZM146.321 219.012C139.134 219.012 133.319 224.827 133.319 232.014C133.319 239.201 139.134 245.017 146.321 245.017C153.508 245.017 159.323 239.201 159.323 232.014C159.353 224.827 153.508 219.012 146.321 219.012ZM186.73 222.382C174.831 222.382 165.139 232.044 165.139 243.973C165.139 255.872 174.801 265.564 186.73 265.564C198.629 265.564 208.321 255.902 208.321 243.973C208.321 232.044 198.629 222.382 186.73 222.382ZM42.9586 195.691C31.0596 195.691 21.3675 205.354 21.3675 217.282C21.3675 229.211 31.0298 238.873 42.9586 238.873C54.8575 238.873 64.5496 229.211 64.5496 217.282C64.5496 205.354 54.8873 195.691 42.9586 195.691ZM60.8218 80.9068C41.7359 80.9068 26.2583 96.3843 26.2583 115.47C26.2583 134.556 41.7359 150.034 60.8218 150.034C79.9078 150.034 95.3853 134.556 95.3853 115.47C95.3853 96.3843 79.9078 80.9068 60.8218 80.9068ZM159.353 5.18901C147.454 5.18901 137.762 14.8513 137.762 26.7801C137.762 38.679 147.424 48.3711 159.353 48.3711C171.252 48.3711 180.944 38.7088 180.944 26.7801C180.914 14.8513 171.252 5.18901 159.353 5.18901Z" fill="white"/>
</svg>
