<svg width="19" height="21" viewBox="0 0 19 21" fill="none" xmlns="http://www.w3.org/2000/svg">
<path d="M9.38573 20.9999C8.16303 20.9999 7 20.821 5.89659 20.4333C4.823 20.0456 3.83887 19.4491 2.97403 18.644C2.1092 17.8089 1.4233 16.7652 0.946152 15.4828C0.469002 14.1707 0.230438 12.6199 0.230438 10.771V10.2043C0.230438 8.44486 0.469002 6.95377 0.946152 5.70125C1.45312 4.44873 2.1092 3.40496 2.97403 2.59977C3.83887 1.79458 4.79318 1.22795 5.89659 0.840268C7 0.452584 8.16303 0.273682 9.38573 0.273682C10.6084 0.273682 11.7715 0.452584 12.8451 0.840268C13.9485 1.19813 14.9326 1.79458 15.7974 2.59977C16.6623 3.40496 17.3183 4.41891 17.7955 5.70125C18.3025 6.95377 18.541 8.44486 18.541 10.2043V10.771C18.541 12.5901 18.3025 14.1707 17.7955 15.4828C17.3183 16.7652 16.6623 17.8089 15.7974 18.644C14.9326 19.4491 13.9485 20.0456 12.8451 20.4333C11.7417 20.7911 10.6084 20.9999 9.38573 20.9999ZM9.38573 17.958C10.34 17.958 11.2347 17.7195 12.0697 17.2722C12.9047 16.8248 13.5906 16.0793 14.1274 15.0355C14.6642 13.9917 14.9326 12.5603 14.9326 10.8008V10.2342C14.9326 8.56414 14.6642 7.22218 14.1274 6.23806C13.5906 5.22411 12.9047 4.50838 12.0697 4.06105C11.2347 3.61372 10.34 3.37513 9.38573 3.37513C8.43143 3.37513 7.53678 3.61372 6.67195 4.06105C5.83694 4.50838 5.15103 5.22411 4.61423 6.23806C4.10726 7.22218 3.83887 8.56414 3.83887 10.2342V10.8008C3.83887 12.5901 4.10726 13.9917 4.61423 15.0355C5.15103 16.0793 5.83694 16.8248 6.67195 17.2722C7.50696 17.7195 8.43143 17.958 9.38573 17.958Z" fill="white"/>
</svg>
